<svg width="431" height="93"><defs id="SvgjsDefs1173"></defs><g id="SvgjsG1174" featurekey="root" fill="#142959"></g><g id="SvgjsG1175" featurekey="symbol1" fill="#3b96dc" transform="matrix(1.1912801271645417,0,0,1.1912801271645417,9.997876925718652,9.916744937913315)"><title>52 all</title><path d="M51.2,20.4c-1.2-1.3-2.5-2.6-3.9-3.7c-1.3-1-3.2-0.8-4.2,0.6c-0.2,0.3-0.4,0.6-0.5,1c-0.9,3.1-0.7,6.2-0.4,9.1 c0.2,2.8,0.5,5.4-0.5,7.5c-1.4,2.8-4.7,4.2-7.7,3.3c-3-1.2-4.7-4.4-4.1-7.5c0.5-1.6,1.2-3.2,2.1-4.6c0.5-1,1.1-2,1.6-3.1 c2.8-6.2,2.5-13.3-0.7-19.2c-0.5-0.8-1.9-3.4-4.5-3.7s-4.3,1.7-5.8,3.4c-0.3,0.3-0.6,0.7-0.9,1l-7.5,7.9C9.8,17,4.8,22.3,2.1,29 C-2,39.4,0,51.2,7.3,59.7c5.7,6.3,13.8,9.9,22.3,9.8c2.5,0,5-0.3,7.4-1C47.8,65.5,56,56.7,58.3,45.8C59.9,36.7,57.3,27.4,51.2,20.4 L51.2,20.4z M52.4,44.6c-1.8,8.7-8.3,15.7-16.8,18.1c-12.5,3.4-25.4-4-28.8-16.5c-1.3-4.9-1-10.2,0.9-14.9 c2.3-5.7,6.7-10.3,10.9-14.8L26,8.6c0.4-0.4,0.7-0.8,1.1-1.2l0.6-0.7c2.2,4.3,2.4,9.3,0.4,13.7c-0.4,0.8-0.9,1.7-1.4,2.6 c-1.2,2-2.2,4.1-2.8,6.3c-1.2,6.1,2.2,12.2,8,14.4c6,2,12.5-0.8,15.2-6.4c1.6-3.5,1.2-7.2,0.9-10.5l-0.1-0.7 C52,31.5,53.6,38.2,52.4,44.6z"></path></g><g id="SvgjsG1176" featurekey="text1" fill="#ffffff" transform="matrix(3.1799319844107186,0,0,3.1799319844107186,97.57429563874952,-11.824314895883099)"><path d="M12.661 21.5764 c0.13559 0.11864 0.13576 0.27136 -0.016784 0.42373 c-1.2542 1.3222 -2.9661 2.1186 -5 2.1186 c-3.7627 0 -6.8814 -3.0168 -6.8814 -6.8642 s3.1186 -6.9322 6.8814 -6.9322 c2 0 3.7625 0.79661 5.0337 2.1356 c0.15254 0.15238 0.15254 0.30492 0.016949 0.40661 l-1.0847 0.88119 c-0.13559 0.11881 -0.25424 0.11881 -0.38983 -0.016784 c-0.72881 -0.76271 -1.9831 -1.5593 -3.5085 -1.5593 c-3.0508 0 -5.0339 2.5424 -5.0339 5.0847 c0 2.5593 1.9831 5.0169 5.0339 5.0169 c1.5085 0 2.7288 -0.76271 3.4576 -1.5085 c0.13559 -0.15254 0.27119 -0.16933 0.40678 -0.067797 z M20.525271186440676 16.0341 c0.18644 0.11864 0.23729 0.22017 0.11848 0.40661 l-0.69475 1.0169 c-0.084746 0.11864 -0.20339 0.15254 -0.35593 0.11864 c-0.35593 -0.16949 -0.66102 -0.32203 -1.2203 -0.32203 s-1.4407 0.23729 -1.9153 1.2881 l0 5.1866 c0 0.15238 -0.10169 0.27102 -0.25424 0.27102 l-1.339 0 c-0.15254 0 -0.25424 -0.11864 -0.25424 -0.27102 l0 -7.8476 c0 -0.15238 0.11864 -0.27119 0.25424 -0.27119 l0.9322 0 c0.40678 0 0.66102 0.42373 0.66102 0.72881 l0 0.11881 c0.59322 -0.54237 1.3051 -0.91525 2.2373 -0.91525 c0.86441 0 1.5085 0.27119 1.8305 0.49153 z M36.49179661016949 23.64424 c0.050847 0.18644 -0.016784 0.3561 -0.16916 0.3561 l-1.1017 0 c-0.42373 0 -0.66102 -0.28797 -0.66102 -0.6778 l0 -4.4237 c0 -1.1017 -0.77966 -1.7458 -1.8983 -1.7458 c-0.9661 0 -1.7797 0.55932 -2.4746 1.2542 c0.016784 0.10169 0.016784 0.20339 0.016784 0.3222 l0 3.7456 c0.016949 0.47458 0.050847 0.83051 0.10169 1.1695 c0.033898 0.18644 -0.016949 0.35576 -0.16949 0.35576 l-1.1017 0 c-0.44068 0 -0.66102 -0.28797 -0.66102 -0.6778 l0 -4.4237 c0 -1.1017 -0.77966 -1.7458 -1.8985 -1.7458 c-0.96593 0 -1.7795 0.54237 -2.4575 1.2373 l0 5.339 c0 0.15238 -0.11864 0.27102 -0.27119 0.27102 l-1.322 0 c-0.15254 0 -0.25424 -0.11864 -0.25424 -0.27102 l0 -7.8476 c0 -0.15238 0.10169 -0.27119 0.25424 -0.27119 l0.91525 0 c0.40678 0 0.66102 0.42373 0.67797 0.72881 l0 0.16949 c0.66102 -0.50864 1.5424 -1 2.6949 -1 c1.1695 0 2.339 0.49136 2.9831 1.4405 c0.67797 -0.62712 1.7288 -1.4407 3.2203 -1.4407 c1.7458 0 3.4914 1.1017 3.4914 3.2205 l0 3.7456 c0 0.47458 0.050847 0.83051 0.084746 1.1695 z M51.47493220338983 23.69492 c0.08458 0.16966 0.033898 0.30508 -0.15254 0.30508 l-1.5424 0 c-0.15254 0 -0.23712 -0.067631 -0.28797 -0.18644 l-1.0508 -2.2034 l-7.3051 0 l-1.0339 2.2034 c-0.067797 0.11881 -0.15254 0.18644 -0.28814 0.18644 l-1.5593 0 c-0.16949 0 -0.25424 -0.13543 -0.18644 -0.30508 l6.3898 -13.186 c0.050847 -0.11864 0.13559 -0.15254 0.22034 -0.15254 l0.22017 0 c0.084746 0 0.15254 0.033898 0.22034 0.15254 z M41.96623220338983 19.8646 l5.6441 0 l-2.8136 -6 z M61.35578983050847 23.64424 c0.033898 0.18644 -0.016784 0.35576 -0.16916 0.35576 l-1.1017 0 c-0.44068 0 -0.66102 -0.28797 -0.66102 -0.6778 l0 -4.4068 c0 -1.1186 -0.77966 -1.7627 -1.8983 -1.7627 c-0.9661 0 -1.7797 0.45763 -2.4575 1.1186 l0 5.4578 c0 0.15238 -0.11864 0.27102 -0.27119 0.27102 l-1.3222 0 c-0.15238 0 -0.25407 -0.11864 -0.25407 -0.27102 l0 -7.8476 c0 -0.15238 0.10169 -0.27119 0.25407 -0.27119 l0.91525 0 c0.40678 0 0.66102 0.42373 0.67797 0.72881 l0 0.16949 c0.66102 -0.50864 1.5422 -1.0171 2.6947 -1.0171 c1.7458 0 3.4915 1.1019 3.4915 3.2205 l0 3.7627 c0.016784 0.47458 0.050681 0.83051 0.10153 1.1695 z M70.45743898305085 23.62712 c-0.22034 -1.661 -0.2368 -3.2032 -0.16916 -4.8302 c0.084746 -2 -1.0169 -3.2881 -3.0847 -3.2881 c-1.3559 0 -2.7627 0.40678 -3.5932 0.86441 c-0.15254 0.084746 -0.25424 0.23712 -0.18644 0.38966 l0.42373 0.98305 c0.067797 0.16949 0.18644 0.22034 0.40678 0.11864 c1.0847 -0.49153 1.9661 -0.72881 2.8305 -0.72881 c0.91525 0 1.4576 0.35593 1.4237 1.322 c-3.1356 0.5422 -5.5254 1.1015 -5.5254 3.3049 c0 1.4746 1.0678 2.3219 2.7966 2.3219 c1.4408 0 2.1864 -0.44051 2.8983 -0.98288 c0.08458 0.50847 0.23712 0.89831 0.5761 0.89831 l1.0169 0 c0.15238 0 0.20322 -0.18644 0.18627 -0.37288 z M66.10183898305084 22.627299999999998 c-0.69492 0 -1.2373 -0.23729 -1.2373 -0.88136 c0 -1.0339 1.8981 -1.3729 3.6102 -1.7288 c-0.016949 0.55932 -0.016949 1.3051 0 1.7966 c-0.55932 0.42373 -1.5085 0.81356 -2.3729 0.81356 z M74.23733050847457 10.441 l-1.3053 0 c-0.16933 0 -0.27119 0.11864 -0.27119 0.27119 l0 12.61 c0 0.38983 0.23746 0.6778 0.66119 0.6778 l0.91525 0 c0.16949 0 0.27119 -0.10153 0.27119 -0.28797 l0 -13 c0 -0.15254 -0.11864 -0.27119 -0.27119 -0.27119 z M84.83046440677965 15.6102 c0.20339 0 0.30525 0.13543 0.20356 0.32203 l-3.3559 6.8983 c-1.678 3.4914 -3.1525 5.5083 -3.9492 6.288 c-0.15254 0.13559 -0.33898 0.067797 -0.50847 -0.10169 l-0.72881 -0.72881 c-0.18644 -0.16949 -0.15254 -0.33898 0.016949 -0.54237 c1.0339 -1.1695 2.3729 -3.1017 3.2373 -5.0507 l-3.5254 -6.7797 c-0.084746 -0.16949 0 -0.30508 0.18644 -0.30508 l1.4915 0 c0.15238 0 0.23712 0.067797 0.30492 0.18661 l2.4915 5.0846 l2.3729 -5.0678 c0.067797 -0.13559 0.16949 -0.20339 0.32203 -0.20339 l1.4407 0 z M91.64387457627119 23.4578 c0.050847 0.13559 -0.050681 0.22 -0.16933 0.30475 c-0.28814 0.18644 -0.91525 0.32203 -1.5424 0.32203 c-1.8136 0 -2.4746 -0.9322 -2.4746 -3.1186 l0 -3.5763 l-1 0 c-0.15254 0 -0.27119 -0.10169 -0.27119 -0.27119 l0 -0.28814 c0 -0.13559 0.033898 -0.23712 0.13559 -0.33898 c0.98305 -0.79661 1.7627 -1.6269 2.4407 -3.339 c0.050847 -0.11864 0.10169 -0.18644 0.18644 -0.18644 l0.18644 0 c0.13559 0 0.18644 0.067797 0.18644 0.22034 l0 2.4237 l1.7797 0 c0.15254 0 0.28814 0.11881 0.28814 0.28831 l0 1.2203 c0 0.15254 -0.13559 0.27119 -0.28814 0.27119 l-1.4746 0 c-0.13559 0 -0.25424 -0.016949 -0.32203 -0.050847 l0 3.4576 c0 0.98305 0.11864 1.5424 0.94915 1.5424 c0.35593 0 0.59322 -0.050847 0.79661 -0.10169 s0.33898 0.033898 0.37288 0.22051 z M94.54218305084746 12.492 c-0.55915 0 -1.0168 -0.44068 -1.0168 -1.0169 c0 -0.55932 0.45763 -1.0169 1.0168 -1.0169 c0.55932 0 1.0169 0.45763 1.0169 1.0169 c0 0.57627 -0.45763 1.0169 -1.0169 1.0169 z M95.20318305084746 15.6102 l-1.3051 0 c-0.16949 0 -0.27119 0.11881 -0.27119 0.27119 l0 7.4407 c0 0.38983 0.23729 0.6778 0.64407 0.6778 l0.94915 0 c0.15254 0 0.25424 -0.10153 0.25424 -0.28797 l0 -7.8305 c0 -0.15238 -0.11864 -0.27119 -0.27119 -0.27119 z M104.69476271186441 22.4746 c0.10169 0.15254 0.10136 0.27119 -0.01728 0.39 c-0.74576 0.71186 -1.7288 1.2541 -2.9153 1.2541 c-2.339 0 -4.339 -1.8812 -4.339 -4.288 c0 -2.4237 2 -4.339 4.339 -4.339 c1.1864 0 2.1525 0.49153 2.8475 1.1864 c0.11864 0.11881 0.11864 0.25441 0.016949 0.38983 l-0.64407 0.81356 c-0.10169 0.13559 -0.20339 0.15254 -0.40678 0.016949 c-0.42373 -0.42373 -1 -0.67797 -1.7627 -0.67797 c-1.61 0 -2.61 1.2542 -2.61 2.5932 c0 1.322 1 2.5932 2.6271 2.5932 c0.76271 0 1.3051 -0.28814 1.7966 -0.77966 c0.18644 -0.15254 0.30525 -0.10169 0.4239 0.033898 z"></path></g></svg>